<?xml version="1.0" encoding="UTF-8"?>
<!--Generator: Apple Native CoreSVG 123-->
<!DOCTYPE svg
PUBLIC "-//W3C//DTD SVG 1.1//EN"
       "http://www.w3.org/Graphics/SVG/1.1/DTD/svg11.dtd">
<svg version="1.1" xmlns="http://www.w3.org/2000/svg" xmlns:xlink="http://www.w3.org/1999/xlink" width="3300" height="2200">
 <!--glyph: "uni100238.medium", point size: 100.000000, font version: "Version 15.0d7e11", template writer version: "5"-->
 <g id="Notes">
  <rect height="2200" id="artboard" style="fill:white;opacity:1" width="3300" x="0" y="0"/>
  <line id="" style="fill:none;stroke:black;opacity:1;stroke-width:0.5;" x1="263" x2="3036" y1="292" y2="292"/>
  <text style="stroke:none;fill:black;font-family:-apple-system,&quot;SF Pro Display&quot;,&quot;SF Pro Text&quot;,Helvetica,sans-serif;font-weight:bold;" transform="matrix(1 0 0 1 263 322)">Weight/Scale Variations</text>
  <text style="stroke:none;fill:black;font-family:-apple-system,&quot;SF Pro Display&quot;,&quot;SF Pro Text&quot;,Helvetica,sans-serif;text-anchor:middle;" transform="matrix(1 0 0 1 559.711 322)">Ultralight</text>
  <text style="stroke:none;fill:black;font-family:-apple-system,&quot;SF Pro Display&quot;,&quot;SF Pro Text&quot;,Helvetica,sans-serif;text-anchor:middle;" transform="matrix(1 0 0 1 856.422 322)">Thin</text>
  <text style="stroke:none;fill:black;font-family:-apple-system,&quot;SF Pro Display&quot;,&quot;SF Pro Text&quot;,Helvetica,sans-serif;text-anchor:middle;" transform="matrix(1 0 0 1 1153.13 322)">Light</text>
  <text style="stroke:none;fill:black;font-family:-apple-system,&quot;SF Pro Display&quot;,&quot;SF Pro Text&quot;,Helvetica,sans-serif;text-anchor:middle;" transform="matrix(1 0 0 1 1449.84 322)">Regular</text>
  <text style="stroke:none;fill:black;font-family:-apple-system,&quot;SF Pro Display&quot;,&quot;SF Pro Text&quot;,Helvetica,sans-serif;text-anchor:middle;" transform="matrix(1 0 0 1 1746.56 322)">Medium</text>
  <text style="stroke:none;fill:black;font-family:-apple-system,&quot;SF Pro Display&quot;,&quot;SF Pro Text&quot;,Helvetica,sans-serif;text-anchor:middle;" transform="matrix(1 0 0 1 2043.27 322)">Semibold</text>
  <text style="stroke:none;fill:black;font-family:-apple-system,&quot;SF Pro Display&quot;,&quot;SF Pro Text&quot;,Helvetica,sans-serif;text-anchor:middle;" transform="matrix(1 0 0 1 2339.98 322)">Bold</text>
  <text style="stroke:none;fill:black;font-family:-apple-system,&quot;SF Pro Display&quot;,&quot;SF Pro Text&quot;,Helvetica,sans-serif;text-anchor:middle;" transform="matrix(1 0 0 1 2636.69 322)">Heavy</text>
  <text style="stroke:none;fill:black;font-family:-apple-system,&quot;SF Pro Display&quot;,&quot;SF Pro Text&quot;,Helvetica,sans-serif;text-anchor:middle;" transform="matrix(1 0 0 1 2933.4 322)">Black</text>
  <line id="" style="fill:none;stroke:black;opacity:1;stroke-width:0.5;" x1="263" x2="3036" y1="1903" y2="1903"/>
  <g id="" transform="matrix(1 0 0 1 263 1933)">
   <path d="M 9.24805 0.830078 C 13.5547 0.830078 17.1387 -2.74414 17.1387 -7.05078 C 17.1387 -11.3574 13.5449 -14.9316 9.23828 -14.9316 C 4.94141 -14.9316 1.36719 -11.3574 1.36719 -7.05078 C 1.36719 -2.74414 4.95117 0.830078 9.24805 0.830078 Z M 9.24805 -0.654297 C 5.70312 -0.654297 2.87109 -3.49609 2.87109 -7.05078 C 2.87109 -10.6055 5.69336 -13.4473 9.23828 -13.4473 C 12.793 -13.4473 15.6348 -10.6055 15.6445 -7.05078 C 15.6543 -3.49609 12.8027 -0.654297 9.24805 -0.654297 Z M 9.22852 -3.42773 C 9.69727 -3.42773 9.9707 -3.74023 9.9707 -4.25781 L 9.9707 -6.31836 L 12.1973 -6.31836 C 12.6953 -6.31836 13.0371 -6.57227 13.0371 -7.04102 C 13.0371 -7.51953 12.7148 -7.7832 12.1973 -7.7832 L 9.9707 -7.7832 L 9.9707 -10.0098 C 9.9707 -10.5273 9.69727 -10.8496 9.22852 -10.8496 C 8.75977 -10.8496 8.50586 -10.5078 8.50586 -10.0098 L 8.50586 -7.7832 L 6.29883 -7.7832 C 5.78125 -7.7832 5.44922 -7.51953 5.44922 -7.04102 C 5.44922 -6.57227 5.80078 -6.31836 6.29883 -6.31836 L 8.50586 -6.31836 L 8.50586 -4.25781 C 8.50586 -3.75977 8.75977 -3.42773 9.22852 -3.42773 Z"/>
  </g>
  <g id="" transform="matrix(1 0 0 1 281.506 1933)">
   <path d="M 11.709 2.91016 C 17.1582 2.91016 21.6699 -1.60156 21.6699 -7.05078 C 21.6699 -12.4902 17.1484 -17.0117 11.6992 -17.0117 C 6.25977 -17.0117 1.74805 -12.4902 1.74805 -7.05078 C 1.74805 -1.60156 6.26953 2.91016 11.709 2.91016 Z M 11.709 1.25 C 7.09961 1.25 3.41797 -2.44141 3.41797 -7.05078 C 3.41797 -11.6504 7.08984 -15.3516 11.6992 -15.3516 C 16.3086 -15.3516 20 -11.6504 20.0098 -7.05078 C 20.0195 -2.44141 16.3184 1.25 11.709 1.25 Z M 11.6895 -2.41211 C 12.207 -2.41211 12.5195 -2.77344 12.5195 -3.33984 L 12.5195 -6.23047 L 15.5762 -6.23047 C 16.123 -6.23047 16.5039 -6.51367 16.5039 -7.03125 C 16.5039 -7.55859 16.1426 -7.86133 15.5762 -7.86133 L 12.5195 -7.86133 L 12.5195 -10.9277 C 12.5195 -11.5039 12.207 -11.8555 11.6895 -11.8555 C 11.1719 -11.8555 10.8789 -11.4844 10.8789 -10.9277 L 10.8789 -7.86133 L 7.83203 -7.86133 C 7.26562 -7.86133 6.89453 -7.55859 6.89453 -7.03125 C 6.89453 -6.51367 7.28516 -6.23047 7.83203 -6.23047 L 10.8789 -6.23047 L 10.8789 -3.33984 C 10.8789 -2.79297 11.1719 -2.41211 11.6895 -2.41211 Z"/>
  </g>
  <g id="" transform="matrix(1 0 0 1 304.924 1933)">
   <path d="M 14.9707 5.67383 C 21.9336 5.67383 27.6953 -0.078125 27.6953 -7.04102 C 27.6953 -14.0039 21.9238 -19.7559 14.9609 -19.7559 C 8.00781 -19.7559 2.25586 -14.0039 2.25586 -7.04102 C 2.25586 -0.078125 8.01758 5.67383 14.9707 5.67383 Z M 14.9707 3.85742 C 8.93555 3.85742 4.08203 -1.00586 4.08203 -7.04102 C 4.08203 -13.0762 8.92578 -17.9395 14.9609 -17.9395 C 21.0059 -17.9395 25.8594 -13.0762 25.8691 -7.04102 C 25.8789 -1.00586 21.0156 3.85742 14.9707 3.85742 Z M 14.9512 -1.06445 C 15.5176 -1.06445 15.8691 -1.45508 15.8691 -2.06055 L 15.8691 -6.13281 L 20.1074 -6.13281 C 20.6934 -6.13281 21.1133 -6.46484 21.1133 -7.02148 C 21.1133 -7.59766 20.7227 -7.93945 20.1074 -7.93945 L 15.8691 -7.93945 L 15.8691 -12.1875 C 15.8691 -12.8027 15.5176 -13.1934 14.9512 -13.1934 C 14.3848 -13.1934 14.0625 -12.7832 14.0625 -12.1875 L 14.0625 -7.93945 L 9.83398 -7.93945 C 9.21875 -7.93945 8.80859 -7.59766 8.80859 -7.02148 C 8.80859 -6.46484 9.23828 -6.13281 9.83398 -6.13281 L 14.0625 -6.13281 L 14.0625 -2.06055 C 14.0625 -1.47461 14.3848 -1.06445 14.9512 -1.06445 Z"/>
  </g>
  <text style="stroke:none;fill:black;font-family:-apple-system,&quot;SF Pro Display&quot;,&quot;SF Pro Text&quot;,Helvetica,sans-serif;font-weight:bold;" transform="matrix(1 0 0 1 263 1953)">Design Variations</text>
  <text style="stroke:none;fill:black;font-family:-apple-system,&quot;SF Pro Display&quot;,&quot;SF Pro Text&quot;,Helvetica,sans-serif;" transform="matrix(1 0 0 1 263 1971)">Symbols are supported in up to nine weights and three scales.</text>
  <text style="stroke:none;fill:black;font-family:-apple-system,&quot;SF Pro Display&quot;,&quot;SF Pro Text&quot;,Helvetica,sans-serif;" transform="matrix(1 0 0 1 263 1989)">For optimal layout with text and other symbols, vertically align</text>
  <text style="stroke:none;fill:black;font-family:-apple-system,&quot;SF Pro Display&quot;,&quot;SF Pro Text&quot;,Helvetica,sans-serif;" transform="matrix(1 0 0 1 263 2007)">symbols with the adjacent text.</text>
  <rect height="14" id="" style="fill:#00AEEF;stroke:none;opacity:0.4;" width="3" x="776" y="1919"/>
  <g id="" transform="matrix(1 0 0 1 779 1933)">
   <path d="M 10.5273 0 L 12.373 0 L 7.17773 -14.0918 L 5.43945 -14.0918 L 0.244141 0 L 2.08984 0 L 3.50586 -4.0332 L 9.11133 -4.0332 Z M 6.2793 -11.9531 L 6.33789 -11.9531 L 8.59375 -5.52734 L 4.02344 -5.52734 Z"/>
  </g>
  <rect height="14" id="" style="fill:#00AEEF;stroke:none;opacity:0.4;" width="3" x="791.617" y="1919"/>
  <text style="stroke:none;fill:black;font-family:-apple-system,&quot;SF Pro Display&quot;,&quot;SF Pro Text&quot;,Helvetica,sans-serif;font-weight:bold;" transform="matrix(1 0 0 1 776 1953)">Margins</text>
  <text style="stroke:none;fill:black;font-family:-apple-system,&quot;SF Pro Display&quot;,&quot;SF Pro Text&quot;,Helvetica,sans-serif;" transform="matrix(1 0 0 1 776 1971)">Leading and trailing margins on the left and right side of each symbol</text>
  <text style="stroke:none;fill:black;font-family:-apple-system,&quot;SF Pro Display&quot;,&quot;SF Pro Text&quot;,Helvetica,sans-serif;" transform="matrix(1 0 0 1 776 1989)">can be adjusted by modifying the width of the blue rectangles.</text>
  <text style="stroke:none;fill:black;font-family:-apple-system,&quot;SF Pro Display&quot;,&quot;SF Pro Text&quot;,Helvetica,sans-serif;" transform="matrix(1 0 0 1 776 2007)">Modifications are automatically applied proportionally to all</text>
  <text style="stroke:none;fill:black;font-family:-apple-system,&quot;SF Pro Display&quot;,&quot;SF Pro Text&quot;,Helvetica,sans-serif;" transform="matrix(1 0 0 1 776 2025)">scales and weights.</text>
  <g id="" transform="matrix(1 0 0 1 1289 1933)">
   <path d="M 2.83203 3.11523 L 4.375 4.6582 C 5.22461 5.48828 6.19141 5.41992 7.06055 4.46289 L 17.2754 -6.66016 C 17.7051 -6.36719 18.0957 -6.37695 18.5645 -6.47461 L 19.6094 -6.68945 L 20.3027 -5.99609 L 20.2539 -5.47852 C 20.1855 -4.95117 20.3516 -4.53125 20.8496 -4.0332 L 21.6602 -3.22266 C 22.168 -2.71484 22.8223 -2.68555 23.3008 -3.16406 L 26.5527 -6.41602 C 27.0312 -6.89453 27.0117 -7.54883 26.5039 -8.05664 L 25.6836 -8.87695 C 25.1855 -9.375 24.7754 -9.55078 24.2383 -9.47266 L 23.7109 -9.41406 L 23.0566 -10.0781 L 23.3398 -11.2207 C 23.4863 -11.7871 23.3398 -12.2559 22.7148 -12.8613 L 20.3027 -15.2539 C 16.7578 -18.7793 12.2266 -18.6719 9.11133 -15.5371 C 8.69141 -15.1074 8.64258 -14.5215 8.91602 -14.0918 C 9.15039 -13.7207 9.62891 -13.4961 10.2734 -13.6621 C 11.7871 -14.043 13.3008 -13.9258 14.7852 -12.9199 L 14.1602 -11.3379 C 13.9258 -10.752 13.9453 -10.2734 14.1797 -9.83398 L 3.01758 0.439453 C 2.08008 1.30859 1.97266 2.25586 2.83203 3.11523 Z M 10.6738 -15.1465 C 13.3398 -17.1387 16.6504 -16.8262 19.0527 -14.4141 L 21.6797 -11.8066 C 21.9141 -11.5723 21.9434 -11.3867 21.8848 -11.0938 L 21.5039 -9.53125 L 23.0762 -7.95898 L 24.043 -8.04688 C 24.3262 -8.07617 24.4141 -8.05664 24.6387 -7.83203 L 25.2637 -7.20703 L 22.5098 -4.46289 L 21.8848 -5.07812 C 21.6602 -5.30273 21.6406 -5.40039 21.6699 -5.68359 L 21.7578 -6.64062 L 20.1953 -8.20312 L 18.5742 -7.89062 C 18.291 -7.83203 18.1445 -7.83203 17.9102 -8.07617 L 15.7324 -10.2539 C 15.5078 -10.4883 15.4785 -10.625 15.6055 -10.9473 L 16.5527 -13.2227 C 14.9512 -14.7559 12.8418 -15.6055 10.8008 -14.9512 C 10.7129 -14.9219 10.6445 -14.9414 10.6152 -14.9805 C 10.5859 -15.0293 10.5859 -15.0781 10.6738 -15.1465 Z M 4.10156 2.41211 C 3.61328 1.91406 3.78906 1.61133 4.12109 1.30859 L 15.0781 -8.80859 L 16.3086 -7.57812 L 6.15234 3.34961 C 5.84961 3.68164 5.46875 3.7793 5.06836 3.37891 Z"/>
  </g>
  <text style="stroke:none;fill:black;font-family:-apple-system,&quot;SF Pro Display&quot;,&quot;SF Pro Text&quot;,Helvetica,sans-serif;font-weight:bold;" transform="matrix(1 0 0 1 1289 1953)">Exporting</text>
  <text style="stroke:none;fill:black;font-family:-apple-system,&quot;SF Pro Display&quot;,&quot;SF Pro Text&quot;,Helvetica,sans-serif;" transform="matrix(1 0 0 1 1289 1971)">Symbols should be outlined when exporting to ensure the</text>
  <text style="stroke:none;fill:black;font-family:-apple-system,&quot;SF Pro Display&quot;,&quot;SF Pro Text&quot;,Helvetica,sans-serif;" transform="matrix(1 0 0 1 1289 1989)">design is preserved when submitting to Xcode.</text>
  <text id="template-version" style="stroke:none;fill:black;font-family:-apple-system,&quot;SF Pro Display&quot;,&quot;SF Pro Text&quot;,Helvetica,sans-serif;text-anchor:end;" transform="matrix(1 0 0 1 3036 1933)">Template v.1.0</text>
  <text style="stroke:none;fill:black;font-family:-apple-system,&quot;SF Pro Display&quot;,&quot;SF Pro Text&quot;,Helvetica,sans-serif;text-anchor:end;" transform="matrix(1 0 0 1 3036 1951)">Generated from doc.fill</text>
  <text style="stroke:none;fill:black;font-family:-apple-system,&quot;SF Pro Display&quot;,&quot;SF Pro Text&quot;,Helvetica,sans-serif;text-anchor:end;" transform="matrix(1 0 0 1 3036 1969)">Typeset at 100 points</text>
  <text style="stroke:none;fill:black;font-family:-apple-system,&quot;SF Pro Display&quot;,&quot;SF Pro Text&quot;,Helvetica,sans-serif;" transform="matrix(1 0 0 1 263 726)">Small</text>
  <text style="stroke:none;fill:black;font-family:-apple-system,&quot;SF Pro Display&quot;,&quot;SF Pro Text&quot;,Helvetica,sans-serif;" transform="matrix(1 0 0 1 263 1156)">Medium</text>
  <text style="stroke:none;fill:black;font-family:-apple-system,&quot;SF Pro Display&quot;,&quot;SF Pro Text&quot;,Helvetica,sans-serif;" transform="matrix(1 0 0 1 263 1586)">Large</text>
 </g>
 <g id="Guides">
  <g id="H-reference" style="fill:#27AAE1;stroke:none;" transform="matrix(1 0 0 1 339 696)">
   <path d="M 54.9316 0 L 57.666 0 L 30.5664 -70.459 L 28.0762 -70.459 L 0.976562 0 L 3.66211 0 L 12.9395 -24.4629 L 45.7031 -24.4629 Z M 29.1992 -67.0898 L 29.4434 -67.0898 L 44.8242 -26.709 L 13.8184 -26.709 Z"/>
  </g>
  <line id="Baseline-S" style="fill:none;stroke:#27AAE1;opacity:1;stroke-width:0.577;" x1="263" x2="3036" y1="696" y2="696"/>
  <line id="Capline-S" style="fill:none;stroke:#27AAE1;opacity:1;stroke-width:0.577;" x1="263" x2="3036" y1="625.541" y2="625.541"/>
  <g id="H-reference" style="fill:#27AAE1;stroke:none;" transform="matrix(1 0 0 1 339 1126)">
   <path d="M 54.9316 0 L 57.666 0 L 30.5664 -70.459 L 28.0762 -70.459 L 0.976562 0 L 3.66211 0 L 12.9395 -24.4629 L 45.7031 -24.4629 Z M 29.1992 -67.0898 L 29.4434 -67.0898 L 44.8242 -26.709 L 13.8184 -26.709 Z"/>
  </g>
  <line id="Baseline-M" style="fill:none;stroke:#27AAE1;opacity:1;stroke-width:0.577;" x1="263" x2="3036" y1="1126" y2="1126"/>
  <line id="Capline-M" style="fill:none;stroke:#27AAE1;opacity:1;stroke-width:0.577;" x1="263" x2="3036" y1="1055.54" y2="1055.54"/>
  <g id="H-reference" style="fill:#27AAE1;stroke:none;" transform="matrix(1 0 0 1 339 1556)">
   <path d="M 54.9316 0 L 57.666 0 L 30.5664 -70.459 L 28.0762 -70.459 L 0.976562 0 L 3.66211 0 L 12.9395 -24.4629 L 45.7031 -24.4629 Z M 29.1992 -67.0898 L 29.4434 -67.0898 L 44.8242 -26.709 L 13.8184 -26.709 Z"/>
  </g>
  <line id="Baseline-L" style="fill:none;stroke:#27AAE1;opacity:1;stroke-width:0.577;" x1="263" x2="3036" y1="1556" y2="1556"/>
  <line id="Capline-L" style="fill:none;stroke:#27AAE1;opacity:1;stroke-width:0.577;" x1="263" x2="3036" y1="1485.54" y2="1485.54"/>
  <rect height="119.336" id="left-margin" style="fill:#00AEEF;stroke:none;opacity:0.4;" width="12.4512" x="1396.33" y="1030.79"/>
  <rect height="119.336" id="right-margin" style="fill:#00AEEF;stroke:none;opacity:0.4;" width="12.4512" x="1490.91" y="1030.79"/>
 </g>
 <g id="Symbols">
  <g id="Black-L" transform="matrix(1 0 0 1 2859.65 1556)">
   <path d="M 39.8926 35.2539 L 107.617 35.2539 C 122.803 35.2539 131.445 26.5625 131.445 11.377 L 131.445 -41.9434 L 79.1992 -41.9434 C 71.7773 -41.9434 67.9199 -45.8008 67.9199 -53.2227 L 67.9199 -105.615 L 39.8926 -105.615 C 24.707 -105.615 16.0645 -96.9727 16.0645 -81.7383 L 16.0645 11.377 C 16.0645 26.6113 24.707 35.2539 39.8926 35.2539 Z M 83.4473 -53.3691 L 130.957 -53.3691 C 130.811 -57.0312 127.783 -60.5957 123.535 -64.8438 L 90.5762 -98.0469 C 86.6699 -101.953 83.1055 -104.932 79.3457 -105.176 L 79.3457 -57.4219 C 79.3945 -54.6875 80.7129 -53.3691 83.4473 -53.3691 Z"/>
  </g>
  <g id="Heavy-L" transform="matrix(1 0 0 1 2564.18 1556)">
   <path d="M 38.7207 34.5215 L 106.348 34.5215 C 120.898 34.5215 128.955 26.3672 128.955 11.7676 L 128.955 -42.7734 L 78.3691 -42.7734 C 70.8984 -42.7734 67.0898 -46.582 67.0898 -54.0527 L 67.0898 -104.883 L 38.7207 -104.883 C 24.1699 -104.883 16.0645 -96.7285 16.0645 -82.1289 L 16.0645 11.7676 C 16.0645 26.416 24.1211 34.5215 38.7207 34.5215 Z M 81.6895 -53.3203 L 128.418 -53.3203 C 128.174 -56.6895 125.488 -59.9121 121.631 -63.8184 L 87.9395 -97.8027 C 84.3262 -101.416 81.0547 -104.102 77.6367 -104.346 L 77.6367 -57.3242 C 77.6855 -54.6387 79.0039 -53.3203 81.6895 -53.3203 Z"/>
  </g>
  <g id="Bold-L" transform="matrix(1 0 0 1 2268.86 1556)">
   <path d="M 37.4023 33.6914 L 104.883 33.6914 C 118.701 33.6914 126.172 26.123 126.172 12.2559 L 126.172 -43.7012 L 77.4414 -43.7012 C 69.9219 -43.7012 66.1621 -47.4609 66.1621 -54.9805 L 66.1621 -104.053 L 37.4023 -104.053 C 23.584 -104.053 16.0645 -96.4844 16.0645 -82.5684 L 16.0645 12.2559 C 16.0645 26.1719 23.5352 33.6914 37.4023 33.6914 Z M 79.6875 -53.3203 L 125.537 -53.3203 C 125.244 -56.2988 122.949 -59.1797 119.531 -62.5977 L 84.9609 -97.5098 C 81.7383 -100.781 78.8086 -103.125 75.7812 -103.418 L 75.7812 -57.1777 C 75.7812 -54.5898 77.0996 -53.3203 79.6875 -53.3203 Z"/>
  </g>
  <g id="Semibold-L" transform="matrix(1 0 0 1 1973.1 1556)">
   <path d="M 36.4746 33.1055 L 103.857 33.1055 C 117.188 33.1055 124.268 25.9766 124.268 12.5488 L 124.268 -44.3359 L 76.7578 -44.3359 C 69.2383 -44.3359 65.5273 -48.0469 65.5273 -55.6152 L 65.5273 -103.467 L 36.4746 -103.467 C 23.1445 -103.467 16.0645 -96.3379 16.0645 -82.9102 L 16.0645 12.5488 C 16.0645 26.0254 23.0957 33.1055 36.4746 33.1055 Z M 78.3203 -53.2715 L 123.584 -53.2715 C 123.242 -56.0547 121.143 -58.6426 118.066 -61.8164 L 82.9102 -97.3633 C 79.9316 -100.342 77.1973 -102.441 74.4629 -102.783 L 74.4629 -57.1289 C 74.4629 -54.541 75.7324 -53.2715 78.3203 -53.2715 Z"/>
  </g>
  <g id="Medium-L" transform="matrix(1 0 0 1 1677.12 1556)">
   <path d="M 35.791 32.666 L 103.076 32.666 C 116.064 32.666 122.803 25.8789 122.803 12.793 L 122.803 -44.8242 L 76.2695 -44.8242 C 68.7012 -44.8242 65.0391 -48.5352 65.0391 -56.1035 L 65.0391 -103.027 L 35.791 -103.027 C 22.8516 -103.027 16.0645 -96.1914 16.0645 -83.1055 L 16.0645 12.793 C 16.0645 25.9277 22.8027 32.666 35.791 32.666 Z M 77.2949 -53.2715 L 122.07 -53.2715 C 121.729 -55.8105 119.824 -58.252 116.943 -61.1816 L 81.3477 -97.2168 C 78.5645 -100.049 76.0254 -101.953 73.4863 -102.344 L 73.4863 -57.0801 C 73.4863 -54.541 74.7559 -53.2715 77.2949 -53.2715 Z"/>
  </g>
  <g id="Regular-L" transform="matrix(1 0 0 1 1381.36 1556)">
   <path d="M 34.8633 32.1289 L 102.1 32.1289 C 114.6 32.1289 120.898 25.6836 120.898 13.1348 L 120.898 -45.459 L 75.6348 -45.459 C 68.0176 -45.459 64.4043 -49.1211 64.4043 -56.7383 L 64.4043 -102.441 L 34.8633 -102.441 C 22.4609 -102.441 16.0645 -96.0449 16.0645 -83.4473 L 16.0645 13.1348 C 16.0645 25.7324 22.3633 32.1289 34.8633 32.1289 Z M 75.9277 -53.2227 L 120.117 -53.2227 C 119.727 -55.5664 118.066 -57.7637 115.479 -60.3516 L 79.2969 -97.0215 C 76.8066 -99.6094 74.4629 -101.318 72.2168 -101.709 L 72.2168 -56.9824 C 72.2168 -54.4922 73.4375 -53.2227 75.9277 -53.2227 Z"/>
  </g>
  <g id="Light-L" transform="matrix(1 0 0 1 1085.43 1556)">
   <path d="M 33.9355 31.7871 L 101.514 31.7871 C 113.281 31.7871 119.336 25.6836 119.336 13.8184 L 119.336 -46.6309 L 74.6094 -46.6309 C 67.5781 -46.6309 64.209 -50.0488 64.209 -57.0801 L 64.209 -102.051 L 33.9355 -102.051 C 22.2168 -102.051 16.0645 -95.9473 16.0645 -84.082 L 16.0645 13.8184 C 16.0645 25.6836 22.1191 31.7871 33.9355 31.7871 Z M 75.0488 -53.3203 L 118.457 -53.3203 C 118.164 -55.1758 116.699 -56.9336 114.697 -58.9844 L 76.5625 -97.4121 C 74.6094 -99.4141 72.7051 -100.879 70.8984 -101.221 L 70.8984 -57.4707 C 70.8984 -54.6875 72.2656 -53.3203 75.0488 -53.3203 Z"/>
  </g>
  <g id="Thin-L" transform="matrix(1 0 0 1 789.747 1556)">
   <path d="M 32.666 31.3477 L 100.732 31.3477 C 111.572 31.3477 117.285 25.6348 117.285 14.7461 L 117.285 -48.1934 L 73.1934 -48.1934 C 67.041 -48.1934 63.9648 -51.3184 63.9648 -57.5195 L 63.9648 -101.562 L 32.666 -101.562 C 21.9238 -101.562 16.0645 -95.8496 16.0645 -84.9609 L 16.0645 14.7461 C 16.0645 25.6348 21.7773 31.3477 32.666 31.3477 Z M 73.877 -53.418 L 116.26 -53.418 C 116.113 -54.6875 114.893 -55.9082 113.672 -57.1289 L 72.9004 -97.9492 C 71.6797 -99.1699 70.4102 -100.342 69.1895 -100.586 L 69.1895 -58.1055 C 69.1895 -54.9316 70.7031 -53.418 73.877 -53.418 Z"/>
  </g>
  <g id="Ultralight-L" transform="matrix(1 0 0 1 493.549 1556)">
   <path d="M 31.9824 31.1523 L 100.293 31.1523 C 110.693 31.1523 116.26 25.5859 116.26 15.2344 L 116.26 -49.0234 L 72.5098 -49.0234 C 66.748 -49.0234 63.8672 -52.002 63.8672 -57.7148 L 63.8672 -101.318 L 31.9824 -101.318 C 21.7773 -101.318 16.0645 -95.8008 16.0645 -85.4492 L 16.0645 15.2344 C 16.0645 25.5859 21.6309 31.1523 31.9824 31.1523 Z M 73.291 -53.4668 L 115.186 -53.4668 C 115.039 -54.4434 113.965 -55.3711 113.135 -56.2012 L 71.0449 -98.1934 C 70.2148 -99.0723 69.1895 -100.049 68.3105 -100.244 L 68.3105 -58.4473 C 68.3105 -55.0293 69.873 -53.4668 73.291 -53.4668 Z"/>
  </g>
  <g id="Black-M" transform="matrix(1 0 0 1 2874.98 1126)">
   <path d="M 31.9824 20.2148 L 84.8633 20.2148 C 97.1191 20.2148 104.395 12.9395 104.395 0.683594 L 104.395 -39.9414 L 61.9141 -39.9414 C 56.5918 -39.9414 53.6621 -42.8711 53.6621 -48.1934 L 53.6621 -90.625 L 31.9824 -90.625 C 19.7266 -90.625 12.4512 -83.3496 12.4512 -71.0938 L 12.4512 0.683594 C 12.4512 12.9395 19.7266 20.2148 31.9824 20.2148 Z M 66.6016 -49.3652 L 104.102 -49.3652 C 104.053 -52.4414 101.416 -55.3711 97.9004 -58.8867 L 72.3145 -84.4238 C 69.1406 -87.5977 66.2109 -90.1855 63.0859 -90.2832 L 63.0859 -52.7832 C 63.1348 -50.4883 64.2578 -49.3652 66.6016 -49.3652 Z"/>
  </g>
  <g id="Heavy-M" transform="matrix(1 0 0 1 2579.41 1126)">
   <path d="M 30.957 19.4824 L 83.5938 19.4824 C 95.3125 19.4824 102.1 12.7441 102.1 0.976562 L 102.1 -40.5762 L 61.2793 -40.5762 C 55.7129 -40.5762 52.832 -43.5059 52.832 -49.0234 L 52.832 -89.8926 L 30.957 -89.8926 C 19.1895 -89.8926 12.4512 -83.1055 12.4512 -71.3379 L 12.4512 0.976562 C 12.4512 12.7441 19.1895 19.4824 30.957 19.4824 Z M 64.8926 -49.3164 L 101.709 -49.3164 C 101.611 -52.1484 99.2676 -54.834 95.9961 -58.0566 L 70.1172 -84.082 C 67.1875 -87.0605 64.4531 -89.3555 61.5723 -89.502 L 61.5723 -52.5879 C 61.6211 -50.3906 62.6953 -49.3164 64.8926 -49.3164 Z"/>
  </g>
  <g id="Bold-M" transform="matrix(1 0 0 1 2284 1126)">
   <path d="M 29.7852 18.7012 L 82.1777 18.7012 C 93.3105 18.7012 99.5117 12.5 99.5117 1.26953 L 99.5117 -41.2109 L 60.5957 -41.2109 C 54.7852 -41.2109 51.8555 -44.1406 51.8555 -49.9512 L 51.8555 -89.0625 L 29.7852 -89.0625 C 18.6035 -89.0625 12.4512 -82.8613 12.4512 -71.6309 L 12.4512 1.26953 C 12.4512 12.5 18.6035 18.7012 29.7852 18.7012 Z M 62.9883 -49.2676 L 99.0723 -49.2676 C 98.877 -51.8066 96.8262 -54.248 93.9453 -57.1777 L 67.6758 -83.6426 C 64.9414 -86.4258 62.4512 -88.4277 59.8633 -88.6719 L 59.8633 -52.2949 C 59.9121 -50.2441 60.9375 -49.2676 62.9883 -49.2676 Z"/>
  </g>
  <g id="Semibold-M" transform="matrix(1 0 0 1 1988.19 1126)">
   <path d="M 29.0039 18.1152 L 81.1523 18.1152 C 91.9434 18.1152 97.7051 12.3047 97.7051 1.46484 L 97.7051 -41.6992 L 60.1074 -41.6992 C 54.1016 -41.6992 51.1719 -44.6289 51.1719 -50.5859 L 51.1719 -88.5254 L 29.0039 -88.5254 C 18.2129 -88.5254 12.4512 -82.666 12.4512 -71.8262 L 12.4512 1.46484 C 12.4512 12.3535 18.2129 18.1152 29.0039 18.1152 Z M 61.6699 -49.2188 L 97.2168 -49.2188 C 96.9727 -51.5625 95.166 -53.8574 92.4805 -56.5918 L 66.0156 -83.3984 C 63.4277 -85.9863 61.084 -87.793 58.7402 -88.0371 L 58.7402 -52.1484 C 58.7402 -50.1953 59.7168 -49.2188 61.6699 -49.2188 Z"/>
  </g>
  <g id="Medium-M" transform="matrix(1 0 0 1 1692.16 1126)">
   <path d="M 28.3691 17.7246 L 80.4199 17.7246 C 90.918 17.7246 96.3379 12.1582 96.3379 1.61133 L 96.3379 -42.041 L 59.7168 -42.041 C 53.6133 -42.041 50.6836 -44.9707 50.6836 -51.0742 L 50.6836 -88.0859 L 28.3691 -88.0859 C 17.9199 -88.0859 12.4512 -82.5684 12.4512 -72.0215 L 12.4512 1.61133 C 12.4512 12.207 17.9199 17.7246 28.3691 17.7246 Z M 60.6445 -49.1699 L 95.8496 -49.1699 C 95.5566 -51.416 93.9453 -53.5156 91.4062 -56.1035 L 64.6973 -83.2031 C 62.2559 -85.6445 60.0586 -87.3047 57.8125 -87.5977 L 57.8125 -52.002 C 57.8613 -50.0977 58.7891 -49.1699 60.6445 -49.1699 Z"/>
  </g>
  <g id="Regular-M" transform="matrix(1 0 0 1 1396.33 1126)">
   <path d="M 27.5879 17.1387 L 79.4434 17.1387 C 89.5508 17.1387 94.5801 12.0117 94.5801 1.85547 L 94.5801 -42.4805 L 59.2285 -42.4805 C 52.9785 -42.4805 50 -45.459 50 -51.709 L 50 -87.5488 L 27.5879 -87.5488 C 17.5293 -87.5488 12.4512 -82.373 12.4512 -72.2168 L 12.4512 1.85547 C 12.4512 12.0605 17.4805 17.1387 27.5879 17.1387 Z M 59.375 -49.1699 L 93.9941 -49.1699 C 93.7012 -51.1719 92.2852 -53.125 89.9414 -55.5176 L 63.0371 -82.9102 C 60.7422 -85.2539 58.7402 -86.6699 56.6895 -87.0117 L 56.6895 -51.8066 C 56.6895 -50.0488 57.5684 -49.1699 59.375 -49.1699 Z"/>
  </g>
  <g id="Light-M" transform="matrix(1 0 0 1 1100.33 1126)">
   <path d="M 26.709 16.8457 L 78.9062 16.8457 C 88.3789 16.8457 93.1641 11.9629 93.1641 2.49023 L 93.1641 -43.5547 L 58.3008 -43.5547 C 52.5879 -43.5547 49.8535 -46.2891 49.8535 -52.002 L 49.8535 -87.207 L 26.709 -87.207 C 17.334 -87.207 12.4512 -82.3242 12.4512 -72.8027 L 12.4512 2.49023 C 12.4512 12.0117 17.2852 16.8457 26.709 16.8457 Z M 58.5449 -49.2188 L 92.5293 -49.2188 C 92.2852 -50.8789 91.0645 -52.3926 89.2578 -54.248 L 60.5469 -83.252 C 58.7891 -85.0586 57.1289 -86.2793 55.5176 -86.5723 L 55.5176 -52.2461 C 55.5176 -50.1953 56.543 -49.2188 58.5449 -49.2188 Z"/>
  </g>
  <g id="Thin-M" transform="matrix(1 0 0 1 804.518 1126)">
   <path d="M 25.5859 16.4551 L 78.2227 16.4551 C 86.8164 16.4551 91.3574 11.9629 91.3574 3.32031 L 91.3574 -44.9707 L 57.0312 -44.9707 C 52.0996 -44.9707 49.6582 -47.4609 49.6582 -52.3926 L 49.6582 -86.7676 L 25.5859 -86.7676 C 17.041 -86.7676 12.4512 -82.2266 12.4512 -73.584 L 12.4512 3.32031 C 12.4512 11.9629 16.9434 16.4551 25.5859 16.4551 Z M 57.5195 -49.3164 L 90.5762 -49.3164 C 90.4297 -50.4395 89.4531 -51.4648 88.3301 -52.6367 L 57.3242 -83.7402 C 56.2012 -84.8633 55.0781 -85.791 54.0039 -86.0352 L 54.0039 -52.832 C 54.0039 -50.4395 55.127 -49.3164 57.5195 -49.3164 Z"/>
  </g>
  <g id="Ultralight-M" transform="matrix(1 0 0 1 508.295 1126)">
   <path d="M 25 16.2598 L 77.8809 16.2598 C 86.0352 16.2598 90.3809 11.9141 90.3809 3.71094 L 90.3809 -45.6543 L 56.3965 -45.6543 C 51.8066 -45.6543 49.5117 -47.998 49.5117 -52.5879 L 49.5117 -86.5234 L 25 -86.5234 C 16.9434 -86.5234 12.4512 -82.1777 12.4512 -73.9746 L 12.4512 3.71094 C 12.4512 11.9141 16.7969 16.2598 25 16.2598 Z M 56.9824 -49.3652 L 89.5996 -49.3652 C 89.4531 -50.1953 88.623 -50.9766 87.8418 -51.7578 L 55.6152 -83.9355 C 54.834 -84.7168 54.0039 -85.5469 53.2227 -85.7422 L 53.2227 -53.125 C 53.2227 -50.5371 54.3945 -49.3652 56.9824 -49.3652 Z"/>
  </g>
  <g id="Black-S" transform="matrix(1 0 0 1 2887.7 696)">
   <path d="M 25 8.1543 L 66.4062 8.1543 C 75.9766 8.1543 81.6406 2.49023 81.6406 -7.08008 L 81.6406 -38.9648 L 48.4863 -38.9648 C 44.2871 -38.9648 41.9922 -41.2598 41.9922 -45.459 L 41.9922 -78.5645 L 25 -78.5645 C 15.4297 -78.5645 9.76562 -72.9004 9.76562 -63.3301 L 9.76562 -7.08008 C 9.76562 2.49023 15.4297 8.1543 25 8.1543 Z M 52.0508 -46.2891 L 81.3965 -46.2891 C 81.3477 -48.6816 79.2969 -50.9766 76.5625 -53.7109 L 56.543 -73.7305 C 54.0527 -76.2207 51.7578 -78.2227 49.3164 -78.3203 L 49.3164 -48.9746 C 49.3652 -47.168 50.2441 -46.2891 52.0508 -46.2891 Z"/>
  </g>
  <g id="Heavy-S" transform="matrix(1 0 0 1 2591.79 696)">
   <path d="M 24.3164 7.61719 L 65.4785 7.61719 C 74.7559 7.61719 80.0293 2.34375 80.0293 -6.93359 L 80.0293 -39.3066 L 48.0957 -39.3066 C 43.6523 -39.3066 41.3574 -41.6016 41.3574 -46.0449 L 41.3574 -78.0273 L 24.3164 -78.0273 C 15.0391 -78.0273 9.76562 -72.7539 9.76562 -63.4766 L 9.76562 -6.93359 C 9.76562 2.34375 15.0391 7.61719 24.3164 7.61719 Z M 50.8301 -46.2402 L 79.7363 -46.2402 C 79.6387 -48.4863 77.7832 -50.6348 75.1953 -53.2227 L 55.127 -73.4375 C 52.7832 -75.8301 50.5859 -77.6367 48.291 -77.7832 L 48.291 -48.7305 C 48.3398 -47.0703 49.1699 -46.2402 50.8301 -46.2402 Z"/>
  </g>
  <g id="Bold-S" transform="matrix(1 0 0 1 2295.98 696)">
   <path d="M 23.5352 7.08008 L 64.4531 7.08008 C 73.3398 7.08008 78.2227 2.14844 78.2227 -6.78711 L 78.2227 -39.6973 L 47.7051 -39.6973 C 42.9688 -39.6973 40.625 -42.041 40.625 -46.7285 L 40.625 -77.4414 L 23.5352 -77.4414 C 14.6484 -77.4414 9.76562 -72.5586 9.76562 -63.623 L 9.76562 -6.78711 C 9.76562 2.14844 14.6484 7.08008 23.5352 7.08008 Z M 49.4629 -46.1914 L 77.8809 -46.1914 C 77.7344 -48.291 76.123 -50.293 73.6816 -52.7344 L 53.5645 -73.0957 C 51.3184 -75.3418 49.2676 -76.9531 47.168 -77.1484 L 47.168 -48.4863 C 47.168 -46.9727 47.9492 -46.1914 49.4629 -46.1914 Z"/>
  </g>
  <g id="Semibold-S" transform="matrix(1 0 0 1 1999.91 696)">
   <path d="M 22.998 6.64062 L 63.7695 6.64062 C 72.4121 6.64062 76.9531 2.00195 76.9531 -6.68945 L 76.9531 -39.9414 L 47.3633 -39.9414 C 42.5293 -39.9414 40.1367 -42.334 40.1367 -47.168 L 40.1367 -77.0508 L 22.998 -77.0508 C 14.3555 -77.0508 9.76562 -72.4121 9.76562 -63.7207 L 9.76562 -6.68945 C 9.76562 2.05078 14.3555 6.64062 22.998 6.64062 Z M 48.5352 -46.1426 L 76.6113 -46.1426 C 76.416 -48.1445 74.9512 -50.0488 72.6562 -52.3438 L 52.4902 -72.8516 C 50.293 -75.0488 48.3398 -76.5137 46.3867 -76.7578 L 46.3867 -48.3398 C 46.3867 -46.875 47.1191 -46.1426 48.5352 -46.1426 Z"/>
  </g>
  <g id="Medium-S" transform="matrix(1 0 0 1 1703.66 696)">
   <path d="M 22.5586 6.34766 L 63.2324 6.34766 C 71.6797 6.34766 76.0254 1.9043 76.0254 -6.5918 L 76.0254 -40.1367 L 47.168 -40.1367 C 42.1387 -40.1367 39.7461 -42.5293 39.7461 -47.5586 L 39.7461 -76.7578 L 22.5586 -76.7578 C 14.1113 -76.7578 9.76562 -72.3145 9.76562 -63.8184 L 9.76562 -6.5918 C 9.76562 1.95312 14.1113 6.34766 22.5586 6.34766 Z M 47.8027 -46.1426 L 75.6348 -46.1426 C 75.3906 -48.0469 74.0723 -49.8535 71.875 -52.0508 L 51.6602 -72.6562 C 49.5605 -74.8047 47.6562 -76.1719 45.752 -76.416 L 45.752 -48.1934 C 45.752 -46.8262 46.4844 -46.1426 47.8027 -46.1426 Z"/>
  </g>
  <g id="Regular-S" transform="matrix(1 0 0 1 1407.56 696)">
   <path d="M 22.0215 5.95703 L 62.5 5.95703 C 70.7031 5.95703 74.8047 1.80664 74.8047 -6.49414 L 74.8047 -40.3809 L 46.875 -40.3809 C 41.6992 -40.3809 39.2578 -42.8223 39.2578 -47.998 L 39.2578 -76.3672 L 22.0215 -76.3672 C 13.8184 -76.3672 9.76562 -72.2168 9.76562 -63.916 L 9.76562 -6.49414 C 9.76562 1.85547 13.8184 5.95703 22.0215 5.95703 Z M 46.875 -46.0938 L 74.3652 -46.0938 C 74.1211 -47.9004 72.9004 -49.6094 70.8496 -51.709 L 50.5859 -72.4121 C 48.584 -74.4629 46.7773 -75.7324 44.9707 -76.0254 L 44.9707 -47.998 C 44.9707 -46.7773 45.6543 -46.0938 46.875 -46.0938 Z"/>
  </g>
  <g id="Light-S" transform="matrix(1 0 0 1 1111.48 696)">
   <path d="M 21.2891 5.71289 L 62.0605 5.71289 C 69.6777 5.71289 73.5352 1.75781 73.5352 -5.95703 L 73.5352 -41.3574 L 46.0449 -41.3574 C 41.3574 -41.3574 39.1113 -43.5547 39.1113 -48.2422 L 39.1113 -76.0742 L 21.2891 -76.0742 C 13.6719 -76.0742 9.76562 -72.168 9.76562 -64.4531 L 9.76562 -5.95703 C 9.76562 1.80664 13.623 5.71289 21.2891 5.71289 Z M 46.1914 -46.1426 L 73.0957 -46.1426 C 72.8516 -47.6074 71.8262 -48.9746 70.2148 -50.6348 L 48.3887 -72.7051 C 46.8262 -74.3164 45.3613 -75.3906 43.9453 -75.6348 L 43.9453 -48.3887 C 43.9453 -46.9238 44.6777 -46.1426 46.1914 -46.1426 Z"/>
  </g>
  <g id="Thin-S" transform="matrix(1 0 0 1 815.578 696)">
   <path d="M 20.2637 5.37109 L 61.4258 5.37109 C 68.3594 5.37109 71.9238 1.75781 71.9238 -5.22461 L 71.9238 -42.5781 L 44.9219 -42.5781 C 40.918 -42.5781 38.9648 -44.5801 38.9648 -48.584 L 38.9648 -75.6836 L 20.2637 -75.6836 C 13.4277 -75.6836 9.76562 -72.0703 9.76562 -65.1367 L 9.76562 -5.22461 C 9.76562 1.75781 13.3789 5.37109 20.2637 5.37109 Z M 45.2637 -46.2402 L 71.3379 -46.2402 C 71.1914 -47.2168 70.4102 -48.1445 69.3848 -49.1699 L 45.5078 -73.1445 C 44.5312 -74.1699 43.5547 -74.9512 42.627 -75.1465 L 42.627 -48.877 C 42.627 -47.0703 43.457 -46.2402 45.2637 -46.2402 Z"/>
  </g>
  <g id="Ultralight-S" transform="matrix(1 0 0 1 519.281 696)">
   <path d="M 19.7266 5.17578 L 61.084 5.17578 C 67.627 5.17578 71.0938 1.70898 71.0938 -4.83398 L 71.0938 -43.2129 L 44.3848 -43.2129 C 40.6738 -43.2129 38.8184 -45.1172 38.8184 -48.7793 L 38.8184 -75.4883 L 19.7266 -75.4883 C 13.3301 -75.4883 9.76562 -72.0215 9.76562 -65.4785 L 9.76562 -4.83398 C 9.76562 1.70898 13.2324 5.17578 19.7266 5.17578 Z M 44.7754 -46.2891 L 70.459 -46.2891 C 70.3613 -47.0215 69.6289 -47.7051 68.9453 -48.4375 L 44.043 -73.3398 C 43.3594 -74.0234 42.5781 -74.707 41.8945 -74.8535 L 41.8945 -49.1699 C 41.8945 -47.2168 42.8223 -46.2891 44.7754 -46.2891 Z"/>
  </g>
 </g>
</svg>
